<?xml version="1.0" standalone="no"?><!DOCTYPE svg PUBLIC "-//W3C//DTD SVG 1.1//EN" "http://www.w3.org/Graphics/SVG/1.1/DTD/svg11.dtd"><svg t="1775923815577" class="icon" viewBox="0 0 1024 1024" version="1.1" xmlns="http://www.w3.org/2000/svg" p-id="7011" xmlns:xlink="http://www.w3.org/1999/xlink" width="200" height="200"><path d="M125.12 118.826667c8.64-42.773333 44.053333-71.36 77.546667-95.466667 29.333333 28.266667 52.8 61.546667 80.746666 90.986667 44.48-13.653333 85.866667-36.906667 131.946667-45.44 112-25.92 230.08-4.266667 331.413333 47.36 23.36-34.88 50.88-66.986667 84.16-92.906667 25.28 25.066667 55.68 48.853333 66.133334 84.373333 13.76 51.733333 14.933333 105.813333 12.906666 158.933334 48.96 76.16 81.493333 164.906667 81.386667 256.213333 5.44 182.613333-107.733333 361.386667-273.813333 436.8-90.133333 39.253333-193.386667 64.213333-290.56 37.12-130.56-25.493333-249.28-106.88-317.653334-221.226667-38.613333-63.68-61.013333-136.32-69.12-210.133333-7.68-104.213333 24.213333-208.853333 79.253334-296.853333-10.133333-49.6-2.666667-100.48 5.653333-149.76m336.533333 113.92c-9.173333 83.52-15.68 167.573333-34.986666 249.493333-6.08 26.666667-23.146667 49.706667-45.226667 65.493333-24.106667 4.16-48.64 1.066667-72.853333 2.24-71.146667 1.386667-148.8-35.84-171.306667-107.626666-6.4 4.373333-19.2 13.333333-25.6 17.813333-2.453333 42.24-3.946667 84.693333 0.426667 126.933333 17.813333 146.24 114.56 281.813333 250.666666 340.266667 70.293333 32.64 149.12 33.066667 224.746667 25.92 67.733333-18.133333 133.866667-46.826667 185.493333-95.466667 96-82.666667 146.133333-209.386667 148.586667-334.506666 5.973333-53.12-54.293333-72.213333-88.96-98.24-13.653333 38.826667-32.106667 80.746667-72.746667 97.706666-52.16 32.32-114.773333 30.613333-173.546666 26.346667-29.866667-21.226667-56.106667-50.88-65.493334-86.933333-10.453333-75.733333 4.906667-153.813333-16.426666-228.16-6.186667-4.586667-18.56-13.546667-24.746667-18.026667-4.48 4.16-13.44 12.586667-18.026667 16.746667m192.96 18.56c-29.12 6.08-43.52 43.306667-21.973333 65.493333 7.466667 19.626667 30.08 10.56 45.013333 6.933333 21.12-9.706667 55.36-27.306667 43.306667-55.68-7.786667-29.226667-44.373333-20.586667-66.346667-16.746666m-386.133333 34.773333c13.76 34.24 56.426667 38.506667 88.213333 43.84 9.386667-19.413333 13.866667-40.533333 12.586667-62.186667-6.826667-4.48-20.586667-13.44-27.413333-17.92-19.626667-0.213333-39.253333-0.213333-58.986667 0-5.12 11.946667-10.666667 23.786667-14.4 36.266667m-136.853333 88.746667c15.786667 29.44 29.12 60.266667 44.8 89.813333 20.373333 36.906667 65.173333 45.866667 100.906666 61.333333l43.626667 0.32c21.333333-8 42.666667-16.106667 63.786667-24.853333-2.88-18.56-9.493333-36.16-24.32-48.533333-11.733333 15.466667-23.893333 30.72-36.586667 45.44-20.266667-3.733333-45.973333 2.56-60.373333-16.213334-20.693333-17.173333-11.946667-45.973333-12.48-69.226666-38.506667-16.533333-78.4-29.653333-119.36-38.08m586.88 36.266666c-1.173333 21.226667 6.293333 46.186667-10.133334 63.36-12.8 17.6-36.586667 18.56-55.893333 23.253334-5.866667-4.373333-17.6-13.12-23.36-17.493334-7.253333-10.453333-14.506667-20.8-21.76-31.253333-10.666667 13.973333-25.6 25.813333-30.293333 43.413333 16.213333 18.986667 40.96 25.706667 63.04 35.306667 49.386667-0.426667 100.8-15.04 138.346666-48 21.973333-32.32 33.6-70.613333 53.013334-104.64-38.72 8.64-76.373333 21.013333-112.96 36.053333z" fill="#333333" p-id="7012"></path><path d="M406.186667 615.68c51.626667-14.08 105.92-15.146667 157.226666 1.813333-8.426667 4.693333-25.066667 14.186667-33.386666 18.88-0.106667 4.373333-0.213333 13.12-0.32 17.493334 8.32 0.32 25.066667 0.853333 33.386666 1.173333-16.853333 24.533333-30.826667 58.56-63.466666 65.066667-57.28 11.52-99.946667-52.586667-93.44-104.426667zM405.12 884.16c17.28-80.746667 145.92-47.146667 157.333333 20.373333-28.48-10.24-53.866667-27.52-82.56-37.12-26.346667-5.973333-49.6 13.013333-74.773333 16.746667z" fill="#333333" p-id="7013"></path><path d="M461.653333 232.746667c4.586667-4.16 13.546667-12.586667 18.026667-16.746667 6.186667 4.48 18.56 13.44 24.746667 18.026667 21.333333 74.346667 5.973333 152.426667 16.426666 228.16 9.386667 36.053333 35.626667 65.706667 65.493334 86.933333 58.773333 4.266667 121.386667 5.973333 173.546666-26.346667 40.64-16.96 59.093333-58.88 72.746667-97.706666 34.666667 26.026667 94.933333 45.12 88.96 98.24-2.453333 125.12-52.586667 251.84-148.586667 334.506666-51.626667 48.64-117.76 77.333333-185.493333 95.466667-75.626667 7.146667-154.453333 6.72-224.746667-25.92-136.106667-58.453333-232.853333-194.026667-250.666666-340.266667-4.373333-42.24-2.88-84.693333-0.426667-126.933333 6.4-4.48 19.2-13.44 25.6-17.813333 22.506667 71.786667 100.16 109.013333 171.306667 107.626666 24.213333-1.173333 48.746667 1.92 72.853333-2.24 22.08-15.786667 39.146667-38.826667 45.226667-65.493333 19.306667-81.92 25.813333-165.973333 34.986666-249.493333m-55.466666 382.933333c-6.506667 51.84 36.16 115.946667 93.44 104.426667 32.64-6.506667 46.613333-40.533333 63.466666-65.066667-8.32-0.32-25.066667-0.853333-33.386666-1.173333 0.106667-4.373333 0.213333-13.12 0.32-17.493334 8.32-4.693333 24.96-14.186667 33.386666-18.88-51.306667-16.96-105.6-15.893333-157.226666-1.813333m-1.066667 268.48c25.173333-3.733333 48.426667-22.72 74.773333-16.746667 28.693333 9.6 54.08 26.88 82.56 37.12-11.413333-67.52-140.053333-101.12-157.333333-20.373333z" fill="#F3F3F3" p-id="7014"></path><path d="M654.613333 251.306667c21.973333-3.84 58.56-12.48 66.346667 16.746666 12.053333 28.373333-22.186667 45.973333-43.306667 55.68-14.933333 3.626667-37.546667 12.693333-45.013333-6.933333-21.546667-22.186667-7.146667-59.413333 21.973333-65.493333zM268.48 286.08c3.733333-12.48 9.28-24.32 14.4-36.266667 19.733333-0.213333 39.36-0.213333 58.986667 0 6.826667 4.48 20.586667 13.44 27.413333 17.92 1.28 21.653333-3.2 42.773333-12.586667 62.186667-31.786667-5.333333-74.453333-9.6-88.213333-43.84zM131.626667 374.826667c40.96 8.426667 80.853333 21.546667 119.36 38.08 0.533333 23.253333-8.213333 52.053333 12.48 69.226666 14.4 18.773333 40.106667 12.48 60.373333 16.213334 12.693333-14.72 24.853333-29.973333 36.586667-45.44 14.826667 12.373333 21.44 29.973333 24.32 48.533333-21.12 8.746667-42.453333 16.853333-63.786667 24.853333L277.333333 525.973333c-35.733333-15.466667-80.533333-24.426667-100.906666-61.333333-15.68-29.546667-29.013333-60.373333-44.8-89.813333zM718.506667 411.093333c36.586667-15.04 74.24-27.413333 112.96-36.053333-19.413333 34.026667-31.04 72.32-53.013334 104.64-37.546667 32.96-88.96 47.573333-138.346666 48-22.08-9.6-46.826667-16.32-63.04-35.306667 4.693333-17.6 19.626667-29.44 30.293333-43.413333 7.253333 10.453333 14.506667 20.8 21.76 31.253333 5.76 4.373333 17.493333 13.12 23.36 17.493334 19.306667-4.693333 43.093333-5.653333 55.893333-23.253334 16.426667-17.173333 8.96-42.133333 10.133334-63.36z" fill="#F3F3F3" p-id="7015"></path></svg>