<?xml version="1.0" standalone="no"?><!DOCTYPE svg PUBLIC "-//W3C//DTD SVG 1.1//EN" "http://www.w3.org/Graphics/SVG/1.1/DTD/svg11.dtd"><svg t="1775923734510" class="icon" viewBox="0 0 1024 1024" version="1.1" xmlns="http://www.w3.org/2000/svg" p-id="1581" xmlns:xlink="http://www.w3.org/1999/xlink" width="200" height="200"><path d="M781.6 578.4c0-20.8-16.8-37.6-37.6-37.6s-37.6 16.8-37.6 37.6c0 7.2 2.4 13.6 5.6 19.2-9.6 6.4-16 18.4-16 30.4 0 20.8 16.8 37.6 37.6 37.6s37.6-16.8 37.6-37.6c0-7.2-2.4-13.6-5.6-19.2 9.6-6.4 16-17.6 16-30.4zM231.2 578.4c0-20.8 16.8-37.6 37.6-37.6s37.6 16.8 37.6 37.6c0 7.2-2.4 13.6-5.6 19.2 9.6 6.4 16 18.4 16 30.4 0 20.8-16.8 37.6-37.6 37.6s-37.6-16.8-37.6-37.6c0-7.2 2.4-13.6 5.6-19.2-9.6-6.4-16-17.6-16-30.4z" fill="#E5B8AE" p-id="1582"></path><path d="M359.2 336C400 438.4 46.4 617.6 17.6 479.2c-28-137.6 199.2-4.8 341.6-143.2z" fill="#B72929" p-id="1583"></path><path d="M88 460.8m-80 0a80 80 0 1 0 160 0 80 80 0 1 0-160 0Z" fill="#F2D14F" p-id="1584"></path><path d="M88 507.2c-3.2 0-6.4-0.8-8.8-3.2l-0.8-0.8c-2.4-4-10.4-16-13.6-19.2s-15.2-11.2-19.2-13.6l-0.8-0.8c-4.8-4.8-4.8-12 0-16.8l0.8-0.8c4-2.4 16-10.4 19.2-13.6s11.2-15.2 13.6-19.2l0.8-0.8c4.8-4.8 12-4.8 16.8 0l0.8 0.8c2.4 4 10.4 16 13.6 19.2s15.2 11.2 19.2 13.6l0.8 0.8c4.8 4.8 4.8 12 0 16.8l-0.8 0.8c-4 2.4-16 10.4-19.2 13.6s-11.2 15.2-13.6 19.2l-0.8 0.8c-1.6 1.6-4.8 3.2-8 3.2z m-2.4-8.8c1.6 1.6 4 1.6 4.8 0 1.6-3.2 10.4-16 14.4-20s16.8-12.8 20-14.4c1.6-1.6 1.6-4 0-4.8-3.2-1.6-16-10.4-20-14.4s-12.8-16.8-14.4-20c-1.6-1.6-4-1.6-4.8 0-1.6 3.2-10.4 16-14.4 20s-16.8 12.8-20 14.4c-1.6 1.6-1.6 4 0 4.8 3.2 1.6 16 10.4 20 14.4s12 16.8 14.4 20zM667.2 336c-40 102.4 312.8 282.4 341.6 143.2 28-137.6-199.2-4.8-341.6-143.2z" fill="#B72929" p-id="1585"></path><path d="M938.4 460.8m-80 0a80 80 0 1 0 160 0 80 80 0 1 0-160 0Z" fill="#F2D14F" p-id="1586"></path><path d="M938.4 507.2c-3.2 0-6.4-0.8-8.8-3.2l-0.8-0.8c-2.4-4-10.4-16-13.6-19.2-3.2-3.2-15.2-11.2-19.2-13.6l-0.8-0.8c-4.8-4.8-4.8-12 0-16.8l0.8-0.8c4-2.4 16-10.4 19.2-13.6 3.2-3.2 11.2-15.2 13.6-19.2l0.8-0.8c4.8-4.8 12-4.8 16.8 0l0.8 0.8c2.4 4 10.4 16 13.6 19.2 3.2 3.2 15.2 11.2 19.2 13.6l0.8 0.8c4.8 4.8 4.8 12 0 16.8l-0.8 0.8c-4 2.4-16 10.4-19.2 13.6-3.2 3.2-11.2 15.2-13.6 19.2l-0.8 0.8c-1.6 1.6-4.8 3.2-8 3.2z m-2.4-8.8c1.6 1.6 4 1.6 4.8 0 1.6-3.2 10.4-16 14.4-20s16.8-12.8 20-14.4c1.6-1.6 1.6-4 0-4.8-3.2-1.6-16-10.4-20-14.4s-12.8-16.8-14.4-20c-1.6-1.6-4-1.6-4.8 0-1.6 3.2-10.4 16-14.4 20s-16.8 12.8-20 14.4c-1.6 1.6-1.6 4 0 4.8 3.2 1.6 16 10.4 20 14.4s12.8 16.8 14.4 20z" fill="#B72929" p-id="1587"></path><path d="M744 530.4c0 176.8-36 296-240 296-200.8 0-240-119.2-240-296s107.2-200.8 240-200.8 240 24 240 200.8z" fill="#F4CCB4" p-id="1588"></path><path d="M617.6 200.8c-8.8 0-17.6 1.6-25.6 4.8-0.8-59.2-39.2-83.2-86.4-83.2-48 0-86.4 16.8-86.4 76.8v8c-8.8-4-19.2-6.4-28.8-6.4-48 0-86.4 48.8-86.4 108.8s38.4 108.8 86.4 108.8 86.4-48.8 86.4-108.8c8.8 4 19.2 6.4 28.8 6.4 8.8 0 17.6-1.6 25.6-4.8 0.8 59.2 39.2 107.2 86.4 107.2 48 0 86.4-48.8 86.4-108.8s-38.4-108.8-86.4-108.8z" fill="#B72929" p-id="1589"></path><path d="M592 205.6v-4c-10.4 14.4-48 68.8-64 110.4 0.8 0 2.4-0.8 3.2-1.6 0 4 0 8.8 0.8 12.8 14.4-44.8 62.4-112.8 68-120.8-2.4 0.8-5.6 2.4-8 3.2zM419.2 199.2v8c-2.4-0.8-4-1.6-6.4-2.4 8.8 12 46.4 66.4 63.2 108.8v-4c2.4 0.8 5.6 2.4 8 3.2-16-44.8-56-101.6-64.8-113.6z" fill="#F2D14F" p-id="1590"></path><path d="M744 510.4S640 464 504 464c-132 0-240 46.4-240 46.4l-26.4-152c-3.2-20 8-39.2 27.2-44.8 50.4-16 150.4-43.2 238.4-43.2 84.8 0 186.4 27.2 238.4 43.2 19.2 5.6 31.2 24.8 28 44.8l-25.6 152z" fill="#C6461C" p-id="1591"></path><path d="M504 438.4c-88.8 0-188 27.2-238.4 43.2-2.4 0.8-4 1.6-5.6 2.4l4.8 26.4s108-46.4 240-46.4c136 0 240 46.4 240 46.4l4.8-26.4c-1.6-0.8-4-1.6-6.4-2.4-52.8-16-154.4-43.2-239.2-43.2z" fill="#F2D14F" p-id="1592"></path><path d="M480 196a36 24 90 1 0 48 0 36 24 90 1 0-48 0Z" fill="#40AF36" p-id="1593"></path><path d="M481.6 196.8c0-20 10.4-36 24-36 3.2 0 6.4 0.8 8.8 2.4-2.4-1.6-6.4-3.2-10.4-3.2-13.6 0-24 16-24 36 0 15.2 6.4 28 15.2 33.6-8-6.4-13.6-18.4-13.6-32.8z" fill="#8DC668" p-id="1594"></path><path d="M504 372.8m-80 0a80 80 0 1 0 160 0 80 80 0 1 0-160 0Z" fill="#F2D14F" p-id="1595"></path><path d="M500.8 319.2c0.8 1.6 0.8 3.2 0.8 4.8 0 1.6-0.8 2.4-1.6 4-3.2 3.2-5.6 5.6-8.8 8-3.2 2.4-7.2 4.8-12.8 8-1.6 0.8-1.6 1.6 0 1.6h6.4c1.6 0 2.4-0.8 4-1.6 0.8-0.8 2.4-0.8 4 0 1.6 0 3.2 0.8 4.8 2.4 1.6 0.8 1.6 1.6 2.4 3.2v3.2c-0.8 1.6-1.6 2.4-1.6 4v6.4c0 1.6-0.8 3.2-2.4 4.8-1.6 1.6-4 1.6-7.2 0.8-1.6 0-3.2-0.8-4.8-0.8h-6.4c-1.6 0-3.2 0.8-3.2 0.8-0.8 0.8-0.8 1.6-0.8 3.2s0 2.4 0.8 2.4c0.8 0.8 0.8 0.8 1.6 0.8 4 0 6.4-0.8 8-0.8 1.6 0 2.4-0.8 3.2-0.8 2.4-1.6 4-1.6 5.6-1.6 1.6 0 3.2 1.6 4 3.2 0.8 0.8 0.8 1.6 0.8 3.2s0 2.4-0.8 4-1.6 3.2-1.6 4c0 1.6-0.8 3.2-0.8 4.8-0.8 5.6-2.4 10.4-4.8 12.8-2.4 2.4-5.6 4.8-9.6 5.6-7.2 1.6-13.6 1.6-18.4-0.8-4.8-2.4-8.8-4.8-10.4-9.6-0.8-1.6-0.8-2.4 0-3.2 0.8-0.8 1.6-0.8 2.4 0 6.4 2.4 13.6 3.2 20 1.6 4-0.8 6.4-2.4 8-4 1.6-1.6 3.2-4.8 4-8 0.8-2.4-0.8-4-4-4h-6.4c-2.4 0-4.8 0.8-7.2 2.4-1.6 0.8-2.4 0.8-3.2 0.8-0.8 0-1.6-0.8-2.4-0.8-0.8-0.8-0.8-1.6-1.6-2.4v-2.4l2.4-7.2c0.8-2.4 0.8-4.8 0-6.4 0-2.4 0-4 0.8-4.8 1.6-1.6 4-2.4 7.2-0.8 0.8 0 1.6 0.8 2.4 0.8 0.8 0 2.4 0 4 0.8h8c1.6 0 2.4-1.6 3.2-4.8 0-2.4-0.8-4-3.2-4h-6.4c-1.6 0-4 0.8-6.4 1.6-4 0.8-6.4 0.8-7.2-1.6 0-0.8-0.8-0.8-1.6 0-6.4 3.2-12 4.8-15.2 4.8-3.2 0-5.6-0.8-7.2-3.2-0.8-0.8-0.8-1.6-1.6-2.4 0-0.8-0.8-1.6-0.8-2.4v-3.2c0.8-0.8 1.6-1.6 2.4-1.6 4.8 0 8.8-0.8 12-1.6 3.2-0.8 6.4-0.8 8.8-1.6 2.4-0.8 4.8-1.6 6.4-2.4l4.8-2.4s0.8-0.8 0-0.8h-0.8c-1.6 0.8-3.2 0.8-4.8 0-1.6 0-3.2-0.8-4.8-1.6-2.4-0.8-3.2-2.4-4-4 0-1.6 0-3.2 0.8-5.6 0.8-1.6 1.6-2.4 4-2.4 1.6 0 3.2 0.8 4 2.4l2.4 2.4c1.6 1.6 2.4 2.4 4 3.2l1.6 1.6c0 0.8 0 0.8 0.8 0.8 1.6-0.8 3.2-1.6 4-2.4l3.2-3.2c0.8-0.8 0.8-2.4 0-3.2-0.8-1.6-3.2-2.4-6.4-2.4h-8c-0.8 0-1.6 0-2.4-1.6-0.8-0.8-0.8-2.4 0-3.2 0.8-2.4 1.6-3.2 3.2-4 1.6 0 2.4-0.8 3.2-1.6 0.8 0 1.6-0.8 2.4-0.8 0.8 0 1.6 0 2.4 0.8 0.8 0.8 1.6 0.8 2.4 1.6 0.8 0.8 2.4 0.8 3.2 1.6 1.6 0.8 2.4 0.8 4 0.8s2.4 0.8 4 0.8c3.2 0 5.6 0 6.4 0.8 0.8 1.6 1.6 2.4 2.4 2.4z m60.8 94.4c-0.8 1.6-2.4 2.4-3.2 2.4-0.8 0-2.4 0-3.2-0.8-4-1.6-8-4-12-5.6-4-1.6-8.8-4-13.6-6.4H528c-2.4 2.4-5.6 4.8-8 5.6-6.4 4-12 5.6-15.2 4.8-3.2-0.8-5.6-3.2-7.2-7.2-0.8-2.4 0-4 2.4-4 3.2 0 5.6 0 8.8-0.8 2.4-0.8 5.6-1.6 8.8-4 0.8-0.8 0.8-0.8 0-1.6l-4.8-2.4c-3.2-0.8-4.8-2.4-5.6-4-0.8-1.6-0.8-4 0.8-6.4 0.8-1.6 1.6-2.4 4-2.4 1.6 0 4 0.8 7.2 2.4 1.6 0.8 2.4 1.6 4 2.4 1.6 0.8 2.4 1.6 4.8 2.4 0.8 0.8 1.6 0 2.4 0 3.2-4 4.8-6.4 4.8-7.2 0-0.8-0.8-1.6-1.6-1.6-0.8-0.8-2.4-0.8-4-0.8h-4.8c-1.6 0-4 0.8-6.4 0.8-1.6 0.8-2.4 0.8-3.2 0.8s-0.8 0-1.6-0.8-0.8-2.4-0.8-3.2c0-0.8 0.8-2.4 1.6-3.2 0-0.8 0.8-0.8 1.6-0.8s1.6-0.8 2.4-0.8h4.8c2.4 0 4.8 0.8 8 0.8h3.2c0.8 0 1.6 0 2.4-0.8 1.6-0.8 3.2-0.8 4-0.8 1.6 0 2.4 0.8 3.2 1.6 0.8 0.8 1.6 2.4 1.6 4s0 3.2-0.8 4.8c-0.8 1.6-1.6 2.4-2.4 4-0.8 1.6-2.4 3.2-4 5.6-0.8 1.6-1.6 2.4-1.6 3.2 0 0.8 0 1.6 0.8 1.6 4.8 2.4 9.6 5.6 13.6 8 4 2.4 8 4.8 10.4 6.4 1.6 0.8 1.6 1.6 0 4z m11.2-68c-0.8 2.4-2.4 4.8-3.2 6.4-0.8 1.6-2.4 3.2-4.8 4.8-0.8 0.8-2.4 1.6-3.2 1.6h-3.2c-0.8 0-2.4-0.8-4-1.6s-3.2-2.4-4.8-4c-1.6-1.6-2.4-2.4-4-3.2-1.6-0.8-2.4-2.4-4-3.2h-0.8s-0.8 0.8-1.6 2.4c0 0.8-0.8 2.4-0.8 4v4.8c0 1.6 1.6 3.2 3.2 3.2 1.6 0.8 5.6 0 10.4-1.6 1.6-0.8 2.4 0 2.4 0 1.6 2.4 1.6 4 0 5.6-1.6 1.6-4 3.2-6.4 4-2.4 0.8-4.8 0.8-8.8 0.8-2.4 0-4.8-0.8-6.4-0.8s-2.4-1.6-3.2-2.4c-0.8-1.6-1.6-2.4-1.6-4.8 0-1.6 0-4 0.8-7.2 0-3.2 0-4.8-2.4-4.8H520c-2.4 0-3.2 0.8-3.2 2.4 0 4 0 7.2-1.6 10.4s-3.2 6.4-5.6 8c-2.4 1.6-4.8 2.4-6.4 2.4-1.6 0-4-1.6-5.6-4.8-0.8-0.8-0.8-1.6-0.8-2.4 0-0.8 0.8-1.6 1.6-1.6 4.8-1.6 7.2-3.2 8.8-5.6 1.6-2.4 0.8-6.4 0-11.2V344c0.8-0.8 1.6-1.6 3.2-1.6h2.4c0.8 0 1.6 0.8 2.4 0.8 1.6 0.8 2.4 0.8 3.2 0.8h8c1.6 0 2.4-0.8 3.2-0.8 0.8-0.8 1.6-0.8 2.4-1.6 0.8 0 0.8-0.8 0-0.8-1.6-0.8-3.2-1.6-4.8-3.2-1.6-0.8-3.2-2.4-5.6-3.2-1.6-0.8-3.2-1.6-4.8-1.6-1.6-0.8-4-0.8-5.6-0.8-1.6 0-3.2-0.8-4-1.6-0.8-0.8-1.6-1.6-1.6-2.4v-3.2l2.4-2.4c0.8-0.8 2.4-0.8 3.2-0.8 1.6 0 2.4 0.8 4 0.8 0.8 0.8 1.6 0.8 2.4 0.8 0.8 0 0.8-0.8 0.8-1.6s0-1.6 0.8-1.6v-1.6c0-2.4 0.8-4 2.4-4.8 1.6-0.8 3.2-0.8 5.6 0 1.6 0.8 2.4 1.6 3.2 2.4 0.8 0.8 0.8 2.4 0.8 3.2s-0.8 2.4-1.6 3.2c-0.8 0.8-2.4 1.6-4 1.6-0.8 0-1.6 0.8-1.6 0.8 0 0.8 0 0.8 1.6 1.6 0.8 0.8 1.6 0.8 2.4 0.8 0.8 0 1.6 0.8 1.6 0.8 0.8 0.8 1.6 0.8 1.6 0.8 0.8 0 0.8-0.8 1.6-2.4l2.4-4.8c1.6-6.4 4.8-7.2 8.8-4 1.6 1.6 2.4 3.2 2.4 4.8 0 1.6-1.6 3.2-4.8 4.8-0.8 0-0.8 0.8-1.6 0.8s-0.8 0.8-1.6 0.8c-0.8 0.8-1.6 0.8-1.6 1.6l1.6 1.6c4 1.6 7.2 3.2 9.6 4 3.2 0.8 5.6 2.4 8 3.2l7.2 2.4c2.4 0.8 4.8 0.8 7.2 1.6 0.8 0 1.6 0.8 2.4 1.6v0.8z" fill="#C6461C" p-id="1596"></path><path d="M648.8 396c-2.4-0.8-4.8 0-7.2 0.8-18.4-7.2-36-8-52-1.6-30.4 12.8-44 45.6-44 47.2l7.2 3.2s12.8-31.2 40-42.4c13.6-5.6 28.8-5.6 45.6 0.8 0 3.2 2.4 5.6 4.8 6.4 4 1.6 8.8-0.8 10.4-4.8 1.6-4-0.8-8.8-4.8-9.6zM358.4 396c2.4-0.8 4.8 0 7.2 0.8 18.4-7.2 36-8 52-1.6 30.4 12.8 44 45.6 44 47.2l-7.2 3.2s-12.8-31.2-40-42.4c-13.6-5.6-28.8-5.6-45.6 0.8 0 3.2-2.4 5.6-4.8 6.4-4 1.6-8.8-0.8-10.4-4.8-1.6-4 0.8-8.8 4.8-9.6z" fill="#F2D14F" p-id="1597"></path><path d="M334.4 568.8c-0.8 0-1.6 0-2.4-0.8-1.6-1.6-1.6-4 0-5.6 0.8-0.8 20.8-24 55.2-24 33.6 0 52 20.8 52.8 21.6 1.6 1.6 1.6 4 0 5.6-1.6 1.6-4 1.6-5.6 0 0 0-16.8-18.4-46.4-18.4-30.4 0-48.8 20.8-48.8 20.8-2.4 0-3.2 0.8-4.8 0.8zM336.8 612c4-9.6 10.4-16.8 19.2-22.4 8.8-5.6 18.4-8.8 28.8-8.8 10.4 0 20.8 2.4 29.6 7.2 8.8 4.8 16 12.8 19.2 21.6-17.6-8-32.8-11.2-48-11.2-15.2 0-30.4 5.6-47.2 13.6-0.8 1.6-1.6 1.6-1.6 0 0 0.8 0 0.8 0 0zM668 568.8c-0.8 0-2.4-0.8-3.2-1.6 0 0-19.2-20.8-48.8-20.8-29.6 0-46.4 18.4-46.4 18.4-1.6 1.6-4 1.6-5.6 0-1.6-1.6-1.6-4 0-5.6 0.8-0.8 19.2-21.6 52.8-21.6 33.6 0 54.4 22.4 55.2 24 1.6 1.6 1.6 4 0 5.6-1.6 0.8-3.2 1.6-4 1.6zM664.8 612.8c-16.8-8-32-13.6-47.2-13.6-16 0-30.4 3.2-48 11.2 3.2-9.6 10.4-16.8 19.2-21.6 8.8-4.8 19.2-8 29.6-7.2 10.4 0 20.8 3.2 28.8 8.8 8 5.6 15.2 12.8 19.2 22.4h-1.6c0.8 0.8 0 0.8 0 0zM522.4 973.6c-64 0-164-260.8-20-260.8 163.2 0 0 208.8 20 260.8z" fill="#340D06" p-id="1598"></path><path d="M575.2 686.4c4.8 0 8.8 4 8 8.8-4.8 40-38.4 71.2-79.2 71.2s-75.2-31.2-79.2-71.2c-0.8-4.8 3.2-8.8 8-8.8h142.4z" fill="#811B1F" p-id="1599"></path><path d="M575.2 686.4c4.8 0 8.8 4 8 8.8-4.8 40-38.4 71.2-79.2 71.2s-75.2-31.2-79.2-71.2c-0.8-4.8 3.2-8.8 8-8.8h142.4m0-16H432.8c-7.2 0-13.6 3.2-17.6 8-4.8 4.8-6.4 12-5.6 18.4 5.6 48.8 46.4 85.6 95.2 85.6 48.8 0 89.6-36.8 95.2-85.6 0.8-7.2-1.6-13.6-5.6-18.4-5.6-5.6-12-8-19.2-8z" fill="#F0C9B2" p-id="1600"></path><path d="M560.8 704.8c4.8 0 8-3.2 8-8v-8c0-0.8 0-1.6-0.8-2.4H440.8c0 0.8-0.8 1.6-0.8 2.4v8c0 4.8 3.2 8 8 8h112.8z" fill="#FBE4E6" p-id="1601"></path><path d="M448 743.2c14.4 14.4 34.4 23.2 56 23.2 20.8 0 39.2-8 53.6-20-4.8-19.2-27.2-33.6-55.2-33.6-26.4-0.8-48.8 12.8-54.4 30.4z" fill="#B7373F" p-id="1602"></path><path d="M493.6 674.4h-76.8c-4 0-7.2 3.2-8 7.2-2.4 24.8-10.4 108-16 157.6 0 0.8-0.8 0.8-1.6 0.8s-0.8-0.8-0.8-0.8c0-112.8 4.8-162.4 8-169.6 2.4-5.6 8-10.4 14.4-11.2h10.4l8 0.8c20.8 2.4 41.6 6.4 62.4 13.6 0.8 0 0.8 0.8 0.8 1.6h-0.8zM511.2 674.4c37.6 0 63.2-1.6 75.2-2.4 4 0 8 2.4 8 7.2 3.2 24.8 12.8 104 17.6 159.2 0 0.8 0.8 0.8 1.6 0.8s0.8-0.8 0.8-0.8c0-112.8-4.8-162.4-8-169.6-2.4-5.6-8-10.4-14.4-11.2h-10.4l-8 0.8c-20.8 2.4-41.6 6.4-62.4 13.6-0.8 0-0.8 0.8-0.8 1.6s0.8 0.8 0.8 0.8z" fill="#340D06" p-id="1603"></path></svg>